<mxfile host="www.draw.io" modified="2019-10-28T19:55:24.477Z" agent="Mozilla/5.0 (Windows NT 10.0; Win64; x64; rv:70.0) Gecko/20100101 Firefox/70.0" etag="-o21eQsRYPAOqSahUkqa" version="12.1.7" type="github" pages="1">
  <diagram id="RWttZEGVznoyfukVSgKM" name="Page-1">
    <mxGraphModel dx="1407" dy="817" grid="1" gridSize="10" guides="1" tooltips="1" connect="1" arrows="1" fold="1" page="1" pageScale="1" pageWidth="1654" pageHeight="1169" math="0" shadow="0">
      <root>
        <mxCell id="0"/>
        <mxCell id="1" parent="0"/>
        <mxCell id="N0mI1Ce6Mq3n9C-HlIXE-1" value="Administracion" style="shape=umlActor;verticalLabelPosition=bottom;labelBackgroundColor=#ffffff;verticalAlign=top;html=1;outlineConnect=0;" parent="1" vertex="1">
          <mxGeometry x="100" y="220" width="30" height="60" as="geometry"/>
        </mxCell>
        <mxCell id="N0mI1Ce6Mq3n9C-HlIXE-10" value="&lt;div align=&quot;center&quot;&gt;Login(User/pass)&lt;/div&gt;&lt;div&gt;&lt;br&gt;&lt;/div&gt;" style="rounded=1;whiteSpace=wrap;html=1;align=center;" parent="1" vertex="1">
          <mxGeometry x="320" y="220" width="120" height="60" as="geometry"/>
        </mxCell>
        <mxCell id="N0mI1Ce6Mq3n9C-HlIXE-11" value="Crear Usuario" style="rounded=1;whiteSpace=wrap;html=1;" parent="1" vertex="1">
          <mxGeometry x="200" y="340" width="120" height="60" as="geometry"/>
        </mxCell>
        <mxCell id="N0mI1Ce6Mq3n9C-HlIXE-13" value="Cargar Materia" style="rounded=1;whiteSpace=wrap;html=1;" parent="1" vertex="1">
          <mxGeometry x="1000" y="220" width="120" height="60" as="geometry"/>
        </mxCell>
        <mxCell id="N0mI1Ce6Mq3n9C-HlIXE-14" value="Cargar Alumno" style="rounded=1;whiteSpace=wrap;html=1;" parent="1" vertex="1">
          <mxGeometry x="1000" y="390" width="120" height="60" as="geometry"/>
        </mxCell>
        <mxCell id="N0mI1Ce6Mq3n9C-HlIXE-15" value="Inscribir" style="rounded=1;whiteSpace=wrap;html=1;" parent="1" vertex="1">
          <mxGeometry x="1000" y="584" width="120" height="60" as="geometry"/>
        </mxCell>
        <mxCell id="N0mI1Ce6Mq3n9C-HlIXE-16" value="Recuperar pass" style="rounded=1;whiteSpace=wrap;html=1;" parent="1" vertex="1">
          <mxGeometry x="440" y="340" width="120" height="60" as="geometry"/>
        </mxCell>
        <mxCell id="N0mI1Ce6Mq3n9C-HlIXE-17" value="" style="endArrow=classic;html=1;exitX=1;exitY=0.5;exitDx=0;exitDy=0;entryX=0;entryY=0.5;entryDx=0;entryDy=0;" parent="1" source="N0mI1Ce6Mq3n9C-HlIXE-10" target="N0mI1Ce6Mq3n9C-HlIXE-13" edge="1">
          <mxGeometry width="50" height="50" relative="1" as="geometry">
            <mxPoint x="440" y="280" as="sourcePoint"/>
            <mxPoint x="490" y="230" as="targetPoint"/>
          </mxGeometry>
        </mxCell>
        <mxCell id="N0mI1Ce6Mq3n9C-HlIXE-18" value="" style="endArrow=classic;html=1;entryX=0;entryY=0.5;entryDx=0;entryDy=0;" parent="1" target="N0mI1Ce6Mq3n9C-HlIXE-14" edge="1">
          <mxGeometry width="50" height="50" relative="1" as="geometry">
            <mxPoint x="620" y="250" as="sourcePoint"/>
            <mxPoint x="680" y="230" as="targetPoint"/>
            <Array as="points">
              <mxPoint x="620" y="310"/>
              <mxPoint x="620" y="410"/>
              <mxPoint x="620" y="420"/>
            </Array>
          </mxGeometry>
        </mxCell>
        <mxCell id="N0mI1Ce6Mq3n9C-HlIXE-19" value="" style="endArrow=classic;html=1;entryX=0;entryY=0.5;entryDx=0;entryDy=0;" parent="1" target="N0mI1Ce6Mq3n9C-HlIXE-15" edge="1">
          <mxGeometry width="50" height="50" relative="1" as="geometry">
            <mxPoint x="620" y="310" as="sourcePoint"/>
            <mxPoint x="680" y="310" as="targetPoint"/>
            <Array as="points">
              <mxPoint x="620" y="510"/>
              <mxPoint x="620" y="614"/>
            </Array>
          </mxGeometry>
        </mxCell>
        <mxCell id="N0mI1Ce6Mq3n9C-HlIXE-23" value="" style="endArrow=classic;startArrow=classic;html=1;exitX=0.5;exitY=0;exitDx=0;exitDy=0;entryX=0.175;entryY=1.033;entryDx=0;entryDy=0;entryPerimeter=0;" parent="1" source="N0mI1Ce6Mq3n9C-HlIXE-11" target="N0mI1Ce6Mq3n9C-HlIXE-10" edge="1">
          <mxGeometry width="50" height="50" relative="1" as="geometry">
            <mxPoint x="320" y="320" as="sourcePoint"/>
            <mxPoint x="370" y="270" as="targetPoint"/>
          </mxGeometry>
        </mxCell>
        <mxCell id="N0mI1Ce6Mq3n9C-HlIXE-24" value="" style="endArrow=classic;startArrow=classic;html=1;exitX=0.833;exitY=1.033;exitDx=0;exitDy=0;exitPerimeter=0;entryX=0.5;entryY=0;entryDx=0;entryDy=0;" parent="1" source="N0mI1Ce6Mq3n9C-HlIXE-10" target="N0mI1Ce6Mq3n9C-HlIXE-16" edge="1">
          <mxGeometry width="50" height="50" relative="1" as="geometry">
            <mxPoint x="440" y="330" as="sourcePoint"/>
            <mxPoint x="490" y="280" as="targetPoint"/>
          </mxGeometry>
        </mxCell>
        <mxCell id="N0mI1Ce6Mq3n9C-HlIXE-26" value="" style="endArrow=classic;html=1;entryX=0;entryY=0.5;entryDx=0;entryDy=0;exitX=0.5;exitY=0.5;exitDx=0;exitDy=0;exitPerimeter=0;" parent="1" source="N0mI1Ce6Mq3n9C-HlIXE-1" target="N0mI1Ce6Mq3n9C-HlIXE-10" edge="1">
          <mxGeometry width="50" height="50" relative="1" as="geometry">
            <mxPoint x="150" y="280" as="sourcePoint"/>
            <mxPoint x="200" y="230" as="targetPoint"/>
          </mxGeometry>
        </mxCell>
        <mxCell id="N0mI1Ce6Mq3n9C-HlIXE-27" value="Database" style="strokeWidth=2;html=1;shape=mxgraph.flowchart.database;whiteSpace=wrap;" parent="1" vertex="1">
          <mxGeometry x="1320" y="800" width="140" height="170" as="geometry"/>
        </mxCell>
        <mxCell id="N0mI1Ce6Mq3n9C-HlIXE-28" value="" style="endArrow=classic;startArrow=classic;html=1;exitX=1;exitY=0.5;exitDx=0;exitDy=0;entryX=0.5;entryY=0;entryDx=0;entryDy=0;entryPerimeter=0;" parent="1" source="N0mI1Ce6Mq3n9C-HlIXE-13" target="N0mI1Ce6Mq3n9C-HlIXE-27" edge="1">
          <mxGeometry width="50" height="50" relative="1" as="geometry">
            <mxPoint x="1170" y="270" as="sourcePoint"/>
            <mxPoint x="1220" y="220" as="targetPoint"/>
            <Array as="points">
              <mxPoint x="1390" y="250"/>
            </Array>
          </mxGeometry>
        </mxCell>
        <mxCell id="N0mI1Ce6Mq3n9C-HlIXE-29" value="" style="endArrow=classic;html=1;entryX=1;entryY=0.5;entryDx=0;entryDy=0;" parent="1" target="N0mI1Ce6Mq3n9C-HlIXE-14" edge="1">
          <mxGeometry width="50" height="50" relative="1" as="geometry">
            <mxPoint x="1390" y="420" as="sourcePoint"/>
            <mxPoint x="1270" y="400" as="targetPoint"/>
          </mxGeometry>
        </mxCell>
        <mxCell id="N0mI1Ce6Mq3n9C-HlIXE-30" value="" style="endArrow=classic;html=1;entryX=1;entryY=0.5;entryDx=0;entryDy=0;" parent="1" target="N0mI1Ce6Mq3n9C-HlIXE-15" edge="1">
          <mxGeometry width="50" height="50" relative="1" as="geometry">
            <mxPoint x="1390" y="614" as="sourcePoint"/>
            <mxPoint x="1270" y="590" as="targetPoint"/>
          </mxGeometry>
        </mxCell>
        <mxCell id="N0mI1Ce6Mq3n9C-HlIXE-31" value="" style="endArrow=classic;startArrow=classic;html=1;exitX=0;exitY=0.15;exitDx=0;exitDy=0;exitPerimeter=0;entryX=0.5;entryY=1;entryDx=0;entryDy=0;" parent="1" source="N0mI1Ce6Mq3n9C-HlIXE-27" target="N0mI1Ce6Mq3n9C-HlIXE-16" edge="1">
          <mxGeometry width="50" height="50" relative="1" as="geometry">
            <mxPoint x="480" y="440" as="sourcePoint"/>
            <mxPoint x="530" y="390" as="targetPoint"/>
            <Array as="points">
              <mxPoint x="500" y="826"/>
            </Array>
          </mxGeometry>
        </mxCell>
        <mxCell id="N0mI1Ce6Mq3n9C-HlIXE-32" value="" style="endArrow=classic;startArrow=classic;html=1;entryX=0.5;entryY=1;entryDx=0;entryDy=0;exitX=0.014;exitY=0.818;exitDx=0;exitDy=0;exitPerimeter=0;" parent="1" source="N0mI1Ce6Mq3n9C-HlIXE-27" target="N0mI1Ce6Mq3n9C-HlIXE-11" edge="1">
          <mxGeometry width="50" height="50" relative="1" as="geometry">
            <mxPoint x="220" y="520" as="sourcePoint"/>
            <mxPoint x="270" y="470" as="targetPoint"/>
            <Array as="points">
              <mxPoint x="260" y="939"/>
            </Array>
          </mxGeometry>
        </mxCell>
        <mxCell id="N0mI1Ce6Mq3n9C-HlIXE-33" value="" style="endArrow=classic;startArrow=classic;html=1;entryX=0.5;entryY=1;entryDx=0;entryDy=0;exitX=0;exitY=0.5;exitDx=0;exitDy=0;exitPerimeter=0;" parent="1" source="N0mI1Ce6Mq3n9C-HlIXE-27" target="N0mI1Ce6Mq3n9C-HlIXE-10" edge="1">
          <mxGeometry width="50" height="50" relative="1" as="geometry">
            <mxPoint x="360" y="400" as="sourcePoint"/>
            <mxPoint x="410" y="350" as="targetPoint"/>
            <Array as="points">
              <mxPoint x="380" y="885"/>
            </Array>
          </mxGeometry>
        </mxCell>
        <mxCell id="N0mI1Ce6Mq3n9C-HlIXE-34" value="Realiza un SELECT y si los datos son correctos y el usuario valido(1), accede al menu principal, sino da error(warning)" style="text;html=1;strokeColor=none;fillColor=none;align=center;verticalAlign=middle;whiteSpace=wrap;rounded=0;" parent="1" vertex="1">
          <mxGeometry x="580" y="865" width="710" height="20" as="geometry"/>
        </mxCell>
        <mxCell id="N0mI1Ce6Mq3n9C-HlIXE-35" value="Comprueba los datos de usuario y SI la respuesta secreta es correcta, te muestra la contraseÃ±a, sino da una excepcion" style="text;html=1;strokeColor=none;fillColor=none;align=center;verticalAlign=middle;whiteSpace=wrap;rounded=0;" parent="1" vertex="1">
          <mxGeometry x="560" y="810" width="740" height="20" as="geometry"/>
        </mxCell>
        <mxCell id="N0mI1Ce6Mq3n9C-HlIXE-36" value="Realiza un INSERT en la base de datos, no permite campos NULL y al finalizar devuelve un mensaje de operacion exitosa, si faltan datos devuelve un Warning." style="text;html=1;strokeColor=none;fillColor=none;align=center;verticalAlign=middle;whiteSpace=wrap;rounded=0;" parent="1" vertex="1">
          <mxGeometry x="332" y="920" width="990" height="20" as="geometry"/>
        </mxCell>
        <mxCell id="N0mI1Ce6Mq3n9C-HlIXE-37" value="Accede al menu de carga de alumnos, materias e inscripciones" style="text;html=1;strokeColor=none;fillColor=none;align=center;verticalAlign=middle;whiteSpace=wrap;rounded=0;" parent="1" vertex="1">
          <mxGeometry x="460" y="230" width="500" height="20" as="geometry"/>
        </mxCell>
      </root>
    </mxGraphModel>
  </diagram>
</mxfile>
